<svg width="24" height="24" viewBox="0 0 24 24" fill="none" xmlns="http://www.w3.org/2000/svg">
<path d="M17.5385 9.4H17.0231V7.11469C17.0231 4.19628 14.9397 1.9 11.9772 1.9C9.00109 1.9 6.97692 4.24616 6.97692 7.11469V9.4H6.46154C5.04732 9.4 3.9 10.5675 3.9 12V19.5C3.9 20.9325 5.04732 22.1 6.46154 22.1H17.5385C18.9527 22.1 20.1 20.9325 20.1 19.5V12C20.1 10.5675 18.9527 9.4 17.5385 9.4ZM8.40769 7.11469C8.40769 5.03037 9.80528 3.35 11.9772 3.35C14.1287 3.35 15.5923 4.99661 15.5923 7.11469V9.4H8.40769V7.11469ZM18.6692 19.5C18.6692 20.1353 18.1603 20.65 17.5385 20.65H6.46156C5.83978 20.65 5.33079 20.1353 5.33079 19.5V12C5.33079 11.3647 5.83978 10.85 6.46156 10.85H17.5385C18.1603 10.85 18.6692 11.3647 18.6692 12V19.5ZM12 13.15C11.2636 13.15 10.6693 13.7559 10.6693 14.5C10.6693 14.9778 10.9166 15.3927 11.2846 15.6322V17.625C11.2846 18.0238 11.6036 18.35 12 18.35C12.3964 18.35 12.7154 18.0238 12.7154 17.625V15.6322C13.0835 15.3927 13.3308 14.9775 13.3308 14.5C13.3308 13.7559 12.7364 13.15 12 13.15Z" fill="#00042D" stroke="#00042D" stroke-width="0.2"/>
</svg>
